<?xml version="1.0" encoding="UTF-8"?>
<svg version="1.1" viewBox="0 0 960 540" xmlns="http://www.w3.org/2000/svg">
<path d="m0 91 22.8 2.3c22.9 2.4 68.5 7 114.2 10.4 45.7 3.3 91.3 5.3 137 2.1 45.7-3.1 91.3-11.5 137.2-15.3 45.8-3.8 91.8-3.2 137.6 4 45.9 7.2 91.5 20.8 137.2 20.2 45.7-0.7 91.3-15.7 137-23 45.7-7.4 91.3-7 114.2-6.9l22.8 0.2v-85h-22.8-114.2-137-137.2-137.6-137.2-137-114.2-22.8z" fill="#2f2f92"/>
<path d="m0 62 22.8 0.3c22.9 0.4 68.5 1 114.2 4.5s91.3 9.9 137 13.2 91.3 3.7 137.2 5.7c45.8 2 91.8 5.6 137.6 7 45.9 1.3 91.5 0.3 137.2-6 45.7-6.4 91.3-18 137-22.4 45.7-4.3 91.3-1.3 114.2 0.2l22.8 1.5v-66h-22.8-114.2-137-137.2-137.6-137.2-137-114.2-22.8z" fill="#282678"/>
<path d="m0 49 22.8-1.2c22.9-1.1 68.5-3.5 114.2-4s91.3 0.9 137 6.4 91.3 15.1 137.2 19.8c45.8 4.7 91.8 4.3 137.6 2.7 45.9-1.7 91.5-4.7 137.2-7.2s91.3-4.5 137-8.2c45.7-3.6 91.3-9 114.2-11.6l22.8-2.7v-43h-22.8-114.2-137-137.2-137.6-137.2-137-114.2-22.8z" fill="#201e5e"/>
<path d="m0 32 22.8-0.8c22.9-0.9 68.5-2.5 114.2-0.4 45.7 2.2 91.3 8.2 137 7.5 45.7-0.6 91.3-8 137.2-9.5 45.8-1.5 91.8 2.9 137.6 3.7 45.9 0.8 91.5-1.8 137.2-2.3s91.3 1.1 137 3.8 91.3 6.3 114.2 8.2l22.8 1.8v-44h-22.8-114.2-137-137.2-137.6-137.2-137-114.2-22.8z" fill="#181546"/>
</svg>
